<?xml version="1.0" encoding="UTF-8" standalone="no"?>
<!-- Created with Inkscape (http://www.inkscape.org/) -->

<svg
   version="1.1"
   id="svg1"
   width="209.94357"
   height="51.354511"
   viewBox="0 0 209.94357 51.354512"
   sodipodi:docname="name.svg"
   inkscape:version="1.3 (0e150ed6c4, 2023-07-21)"
   xmlns:inkscape="http://www.inkscape.org/namespaces/inkscape"
   xmlns:sodipodi="http://sodipodi.sourceforge.net/DTD/sodipodi-0.dtd"
   xmlns="http://www.w3.org/2000/svg"
   xmlns:svg="http://www.w3.org/2000/svg">
  <defs
     id="defs1">
    <clipPath
       clipPathUnits="userSpaceOnUse"
       id="clipPath16">
      <path
         d="M 0,0 H 1234.869 V 1743.161 H 0 Z"
         transform="matrix(0.32068179,0,0,0.32068179,-89.03031,-305.60504)"
         clip-rule="evenodd"
         id="path16" />
    </clipPath>
  </defs>
  <sodipodi:namedview
     id="namedview1"
     pagecolor="#ffffff"
     bordercolor="#000000"
     borderopacity="0.25"
     inkscape:showpageshadow="2"
     inkscape:pageopacity="0.0"
     inkscape:pagecheckerboard="0"
     inkscape:deskcolor="#d1d1d1"
     inkscape:zoom="4.6235917"
     inkscape:cx="69.859109"
     inkscape:cy="48.122761"
     inkscape:window-width="1920"
     inkscape:window-height="991"
     inkscape:window-x="-9"
     inkscape:window-y="-9"
     inkscape:window-maximized="1"
     inkscape:current-layer="g1" />
  <g
     id="g1"
     inkscape:groupmode="layer"
     inkscape:label="1"
     transform="translate(360.8455,-55.323365)">
    <path
       id="path67"
       clip-path="url(#clipPath16)"
       style="fill:#3a4668;fill-opacity:1;fill-rule:nonzero;stroke:none"
       d="m 149.24387,-30.942963 c -0.63661,0.02838 -1.32704,0.144839 -2.07277,0.348397 -0.59501,0.148753 -1.24483,0.469749 -1.94163,0.970814 -0.68896,0.501065 -1.32312,1.205689 -1.89465,2.113869 -0.57544,0.908179 -1.02953,2.059066 -1.36227,3.444824 -0.33666,1.389672 -0.46192,3.053369 -0.3758,4.994995 -1.51494,0.211387 -3.0612,0.438433 -4.63485,0.688965 -1.57758,0.242704 -3.13167,0.559784 -4.66618,0.955156 -1.52668,0.399286 -2.97116,0.935583 -4.33734,1.612804 -1.35836,0.669391 -2.59145,1.530599 -3.69536,2.583618 -1.09608,1.056934 -2.00035,2.360489 -2.70888,3.9145726 -0.70071,1.5579984 -1.14306,3.4369972 -1.33096,5.6369849 h 0.48541 c 0.22704,-2.1804149 0.69679,-4.0320116 1.40924,-5.5586935 0.72029,-1.522767 1.61673,-2.791092 2.69323,-3.804965 1.08434,-1.009959 2.29003,-1.835935 3.61707,-2.47401 1.33486,-0.645904 2.74411,-1.14697 4.22774,-1.503196 1.4797,-0.364054 2.9829,-0.649819 4.50958,-0.861206 1.52277,-0.219216 3.01031,-0.430603 4.46262,-0.64199 0.17615,2.027747 0.36405,4.129877 0.56369,6.310292 0.20748,2.172585 0.35232,4.3216901 0.43844,6.4512157 0.0822,2.1295255 0.047,4.1494491 -0.10961,6.05975878 -0.14876,1.91030962 -0.48541,3.61706682 -1.01779,5.12026132 -0.53238,1.5110236 -1.33096,2.7245436 -2.39572,3.6327236 -1.06476,0.9160091 -2.46618,1.4562216 -4.19642,1.6128036 -1.72241,0.125266 -3.2217,-0.195729 -4.49393,-0.9551554 -1.27615,-0.7515972 -2.27828,-1.8124485 -3.00639,-3.1786331 -0.72028,-1.3700992 -1.14306,-2.9085294 -1.26832,-4.619196 -0.12527,-1.70283753 0.0861,-3.4213384 0.64199,-5.1672362 2.43094,-0.2192159 4.32169,-0.5519553 5.6683,-1.0021306 1.34661,-0.446261 2.27045,-0.9434127 2.77151,-1.4875377 0.50107,-0.5402106 0.68897,-1.0647642 0.5637,-1.5658291 -0.11743,-0.5010648 -0.41886,-0.9003521 -0.90818,-1.2056885 -0.53238,-0.3131655 -1.19003,-0.4775783 -1.97294,-0.5010653 -0.77509,-0.019573 -1.58932,0.140925 -2.4427,0.485407 -0.85729,0.336653 -1.65978,0.9042671 -2.41137,1.7067538 -0.74377,0.7946574 -1.34662,1.8555089 -1.81636,3.1786331 -2.09038,0.2113868 -4.02027,0.7124531 -5.79357,1.503196 -1.76547,0.7946575 -3.22561,1.90639839 -4.38432,3.3352161 -1.15089,1.4288177 -1.86334,3.1982081 -2.14519,5.3081608 h 0.26619 0.34448 c 0.25837,-1.9651137 0.92776,-3.6170668 2.00426,-4.9636784 1.0726,-1.34661174 2.43487,-2.40354848 4.08682,-3.1786332 1.65978,-0.7829137 3.4918,-1.2996385 5.49606,-1.5501708 -0.34448,1.1273959 -0.53238,2.37223249 -0.5637,3.72667335 -0.0313,1.35444085 0.12527,2.68539835 0.46975,3.99286435 0.34448,1.3152951 0.89252,2.4974985 1.64412,3.5544321 0.75943,1.0530191 1.7459,1.8672523 2.95942,2.4426937 1.22134,0.583271 2.68148,0.806401 4.38432,0.673306 2.00426,-0.168327 3.64838,-0.720282 4.93236,-1.6597786 1.28398,-0.9394966 2.27437,-2.1725894 2.97508,-3.6953568 0.70853,-1.5266818 1.19003,-3.2569265 1.44056,-5.19855271 0.25836,-1.94162619 0.36797,-4.00852479 0.32882,-6.20068339 -0.0431,-2.1999878 -0.17224,-4.4234696 -0.39145,-6.6704325 -0.21139,-2.254791 -0.44627,-4.45087 -0.70463,-6.59214 2.36832,-0.489321 4.30995,-1.16263 5.82489,-2.01992 1.51102,-0.86512 2.64625,-1.808534 3.39785,-2.834151 0.75942,-1.033446 1.17828,-2.039493 1.25266,-3.02205 0.0822,-0.978642 -0.14875,-1.83202 -0.68897,-2.552301 -0.53238,-0.72811 -1.32704,-1.237006 -2.38006,-1.518855 -0.52846,-0.144839 -1.11125,-0.204536 -1.74785,-0.176155 z m -106.325673,0.176155 c 0,0.262539 -0.512809,0.03131 -0.751598,0.06263 -0.23096,0.03131 -0.375802,0.04697 -0.438432,0.04697 -2.066892,0.168327 -4.000695,0.626333 -5.793568,1.37793 -1.796787,0.743767 -3.382193,1.706754 -4.76012,2.896784 -1.3701,1.1822 -2.466181,2.528816 -3.288242,4.039839 -0.825973,1.514938 -1.315296,3.123831 -1.471879,4.822754 -0.156583,1.691093 0.07829,3.425253 0.704623,5.198553 0.626331,1.777214 1.714585,3.5192023 3.272583,5.2298689 1.565827,1.7028375 3.648385,3.2999864 6.247658,4.7914372 -0.575441,2.17258575 -1.295724,4.1807656 -2.160844,6.0284422 -0.869034,1.8476765 -1.925971,3.374363 -3.178633,4.5878794 C 30.054912,9.5376252 28.5752,10.308797 26.85279,10.633707 25.443546,10.884239 24.214367,10.78246 23.173092,10.336199 22.139645,9.8860318 21.294097,9.1814074 20.636448,8.2223379 19.978801,7.259354 19.501222,6.1397839 19.211544,4.8558053 18.929695,3.5796558 18.835745,2.2408692 18.929695,0.83162438 c 0.09395,-1.40924482 0.3758,-2.77151888 0.845547,-4.08681408 2.430948,-0.2192159 4.313861,-0.5519553 5.652644,-1.0021306 1.346611,-0.446261 2.270453,-0.9434127 2.771517,-1.4875377 0.508897,-0.5402106 0.704623,-1.0647642 0.579357,-1.5658291 -0.117437,-0.5010648 -0.418859,-0.9003521 -0.908181,-1.2056885 -0.532381,-0.3131655 -1.19003,-0.4775783 -1.972945,-0.5010653 -0.775084,-0.019573 -1.589317,0.140925 -2.442693,0.485407 -0.857291,0.336653 -1.65978,0.9042671 -2.411377,1.7067538 -0.743768,0.7946574 -1.346613,1.8555089 -1.816362,3.1786331 -2.09038,0.2113868 -4.020268,0.7124531 -5.793568,1.503196 -1.76547,0.7946575 -3.225609,1.90639839 -4.3843213,3.3352161 -1.1508833,1.4288177 -1.863337,3.1982081 -2.1451859,5.3081608 -0.04306,0.039146 0.054804,0.05089 0.2975075,0.031317 0.2505324,-0.023486 0.4384323,-0.031317 0.5636985,-0.031317 0.2192159,-2.0668925 0.8455487,-3.7697351 1.8789949,-5.104603 1.0334463,-1.33878265 2.3644033,-2.36831738 3.9928643,-3.1003417 1.63629,-0.7398536 3.460485,-1.2370054 5.464744,-1.4875377 -0.407116,1.3387826 -0.649819,2.6893129 -0.720282,4.05549747 -0.07437,1.36618453 0.0078,2.66973993 0.250533,3.91457283 0.250533,1.2526621 0.677222,2.364403 1.28398,3.3352161 0.602843,0.9708131 1.393589,1.7302319 2.364402,2.2861101 0.970813,0.551955 2.137359,0.818143 3.507457,0.798573 1.878993,-0.04306 3.530946,-0.501066 4.963679,-1.3779293 1.428817,-0.8690344 2.677569,-2.0473232 3.742331,-3.5387739 1.064763,-1.4953653 1.972946,-3.2099517 2.724543,-5.1515779 0.759426,-1.94162617 1.401417,-3.9928665 1.92597,-6.1537085 0.532381,-2.1686712 0.974729,-4.3686651 1.330955,-6.5921404 0.364054,-2.223475 0.673306,-4.368666 0.923839,-6.435558 0.258362,-2.066893 0.493236,-3.96155 0.704623,-5.68396 0.219216,-1.730239 0.45409,-3.194293 0.704623,-4.384321 0.258362,-1.197858 0.571528,-2.023835 0.939498,-2.47401 0.06263,-0.0822 0.0039,-0.133093 -0.172242,-0.156583 -0.168326,-0.01956 -0.657648,-0.285879 -0.657648,-0.01566 z m 107.049863,0.28185 c 0.49813,0.02055 0.94929,0.109608 1.35249,0.266191 0.81423,0.305336 1.40142,0.794658 1.76939,1.471879 0.36405,0.669391 0.46191,1.440563 0.2975,2.317427 -0.15658,0.869034 -0.61067,1.753729 -1.36227,2.66191 -0.74377,0.90818 -1.81245,1.749814 -3.20995,2.520985 -1.40141,0.763341 -3.16298,1.377929 -5.2925,1.847678 -0.16833,-1.941627 -0.047,-3.699273 0.36014,-5.276844 0.41494,-1.573657 1.02562,-2.85764 1.83202,-3.85194 0.80249,-0.990386 1.67544,-1.597146 2.61493,-1.816362 0.59502,-0.113522 1.14012,-0.161476 1.63825,-0.140924 z m -108.365159,0.344482 c -0.450176,0.493235 -0.814231,1.401419 -1.096081,2.724543 -0.27402,1.315295 -0.524552,2.920273 -0.751598,4.807095 -0.219216,1.890736 -0.461919,3.95372 -0.720281,6.185025 -0.250533,2.223475 -0.555869,4.501762 -0.908181,6.8270153 -0.356226,2.3291685 -0.810318,4.5878816 -1.362271,6.7800402 -2.661908,-1.554084 -4.767951,-3.2569266 -6.310292,-5.104603 -1.53451,-1.8476766 -2.552301,-3.7305905 -3.053367,-5.6526435 -0.501064,-1.918139 -0.544125,-3.789309 -0.125266,-5.605668 0.414945,-1.824189 1.252664,-3.49963 2.505327,-5.026312 1.26049,-1.522767 2.888956,-2.806749 4.885387,-3.851939 2.004259,-1.053019 4.313861,-1.7459 6.936623,-2.082553 z m 163.766159,2.740201 c -0.96299,0 -1.84377,0.414945 -2.64626,1.237005 -0.79464,0.825974 -1.51493,1.969032 -2.16084,3.429166 -0.63807,1.46405 -1.20178,3.162977 -1.6911,5.104603 -0.49323,1.941627 -0.916,4.047671 -1.26832,6.310291 -0.19887,1.301713 -0.36918,2.6391676 -0.52259,3.9967791 -0.26111,0.3249564 -0.55114,0.700805 -0.92971,1.2487488 -0.43844,0.6380747 -0.94733,1.3426992 -1.51886,2.1138693 -0.5637,0.7633409 -1.15871,1.5305988 -1.78504,2.3017688 -0.62633,0.76334103 -1.25267,1.45622177 -1.879,2.08255281 -0.6185,0.63416019 -1.20177,1.13522639 -1.75373,1.50319599 -0.65764,0.4462605 -1.15871,0.5715274 -1.50319,0.375799 -0.34448,-0.1878993 -0.57153,-0.6185032 -0.67331,-1.2839799 -0.1057,-0.65764763 -0.11744,-1.46013666 -0.0313,-2.4113769 0.0822,-0.9473256 0.23488,-1.9729458 0.45409,-3.0690251 0.22705,-1.0960793 0.49324,-2.1765035 0.79858,-3.2412663 0.31316,-1.0725919 0.63416,-2.039493 0.97081,-2.8967836 0.33274,-0.865119 0.64591,-1.554086 0.9395,-2.066895 0.0626,-0.258362 -0.0587,-0.458005 -0.36014,-0.595015 -0.29359,-0.14483 -0.63808,-0.160498 -1.03345,-0.04697 -0.38754,0.105693 -0.68896,0.391458 -0.90818,0.861206 l -0.28185,0.579357 c -0.45017,-0.19573 -1.01779,-0.289649 -1.70675,-0.281849 -0.68114,0.01174 -1.37793,0.164413 -2.09821,0.45409 -0.71245,0.293593 -1.36228,0.763343 -1.95729,1.409246 -0.59501,0.649819 -1.02562,1.526685 -1.28398,2.6305934 -0.0144,0.067099 -0.0125,0.121934 -0.0254,0.1878995 -1.56471,2.2965133 -3.03006,4.310711 -4.39803,6.0284422 -1.37793,1.73023951 -2.6071,3.0298803 -3.6797,3.8989146 -1.06476,0.8768634 -1.93771,1.2213465 -2.61493,1.0334472 -0.40712,-0.1252662 -0.65373,-0.4071161 -0.73594,-0.8455477 -0.0861,-0.4384318 -0.0587,-0.9708147 0.0783,-1.5971457 0.1331,-0.61850188 0.31317,-1.26049317 0.53238,-1.94162817 0.22705,-0.68896413 0.44235,-1.34661373 0.64199,-1.97294473 0.20748,-0.6263311 0.34449,-1.1626286 0.40712,-1.612804 0.0626,-0.4462609 0,-0.7437691 -0.1879,-0.8925226 -0.0235,-0.019573 -0.11744,-0.082206 -0.28185,-0.1878995 -0.15658,-0.1135225 -0.44626,-0.3288245 -0.86121,-0.64199 -0.40711,-0.3209946 -1.02953,-0.7907443 -1.86333,-1.4092462 1.32312,-1.9181388 2.18433,-3.4487403 2.58362,-4.5878793 0.40711,-1.146969 0.16049,-1.92597 -0.73594,-2.333085 -0.65765,-0.258362 -1.26833,-0.289678 -1.83202,-0.09395 -0.5637,0.1879 -1.05303,0.528468 -1.47188,1.017789 -0.41495,0.493236 -0.71246,1.06085 -0.89253,1.706753 -0.1879,0.638076 -0.21921,1.29181 -0.0939,1.9572869 0.11744,0.6576475 0.40712,1.2448346 0.87687,1.7537286 0.12526,0.1252662 0.40711,0.352312 0.84555,0.6733066 0.006,0.00415 0.0118,0.00954 0.0176,0.013701 -0.27834,0.335417 -0.63016,0.8006604 -1.0628,1.4268618 -0.43844,0.6380747 -0.94733,1.3426992 -1.51886,2.1138693 -0.5637,0.7633409 -1.15871,1.5305988 -1.78504,2.3017688 -0.62634,0.76334103 -1.25267,1.45622177 -1.879,2.08255281 -0.6185,0.63416019 -1.20177,1.13522639 -1.75373,1.50319599 -0.65765,0.4462605 -1.15871,0.5715274 -1.50319,0.375799 -0.34449,-0.1878993 -0.57153,-0.6185032 -0.67331,-1.2839799 -0.1057,-0.65764763 -0.11744,-1.46013666 -0.0313,-2.4113769 0.0822,-0.9473256 0.23488,-1.9729458 0.45409,-3.0690251 0.22705,-1.0960793 0.49324,-2.1765035 0.79858,-3.2412663 0.31316,-1.0725919 0.63416,-2.039493 0.97081,-2.8967836 0.33274,-0.865119 0.64591,-1.554086 0.9395,-2.066895 0.0626,-0.258362 -0.0587,-0.458005 -0.36014,-0.595015 -0.2936,-0.14483 -0.63808,-0.160498 -1.03345,-0.04697 -0.38754,0.105693 -0.68897,0.391458 -0.90818,0.861206 l -0.28185,0.579357 c -0.45018,-0.19573 -1.01779,-0.289649 -1.70675,-0.281849 -0.68114,0.01174 -1.37793,0.164413 -2.09822,0.45409 -0.71245,0.293593 -1.36227,0.763343 -1.95728,1.409246 -0.59502,0.649819 -1.02562,1.526685 -1.28398,2.6305934 -0.22705,1.0569337 -0.27011,1.9729455 -0.12527,2.7558593 0.14484,0.7750847 0.42278,1.3583573 0.82989,1.7537287 0.40712,0.3875425 0.87687,0.5284672 1.40925,0.4227738 0.44626,-0.1017788 0.97081,-0.6615638 1.56583,-1.6754371 0.59501,-1.0099588 1.44056,-2.5601328 2.53664,-4.6505126 -0.36797,0.9316674 -0.66548,1.9338001 -0.89252,3.006392 -0.21922,1.0647627 -0.35623,2.1216995 -0.40712,3.1629748 -0.0548,1.04519 -0.0117,2.00034761 0.12527,2.86546735 0.13309,0.86511973 0.3758,1.56582965 0.72028,2.09821105 0.34448,0.5323814 0.80249,0.8181458 1.37793,0.861206 0.57153,0.039146 1.27615,-0.2466187 2.11387,-0.861206 0.72028,-0.5323814 1.45622,-1.22134758 2.20782,-2.06689447 0.75942,-0.84554688 1.49537,-1.73807123 2.20782,-2.67756783 0.72028,-0.9394966 1.38184,-1.8359356 1.9886,-2.6932261 0.53427,-0.7520663 0.97769,-1.3458437 1.38772,-1.878995 0.3195,0.2300405 0.6373,0.4586109 0.97277,0.7046231 0.46974,0.3444821 0.8064,0.6028444 1.01779,0.7672563 -0.33666,0.5754416 -0.65765,1.2330912 -0.97082,1.9729447 -0.31316,0.7320244 -0.5637,1.4992823 -0.7516,2.3017689 -0.18006,0.8064012 -0.24661,1.58148814 -0.20355,2.33308537 0.0509,0.75942643 0.26619,1.46013633 0.64199,2.09821103 0.25836,0.4071152 0.59893,0.7085379 1.01779,0.9081809 0.41494,0.2074722 0.73985,0.3014221 0.97081,0.2818493 0.95907,-0.062633 2.02775,-0.6263328 3.20995,-1.6910955 1.19003,-1.0569336 2.46227,-2.44269522 3.82062,-4.1651055 1.1033,-1.4094175 2.24871,-2.9788723 3.41742,-4.6407261 -0.0368,0.5263727 -0.0306,1.0214411 0.0509,1.4620929 0.14484,0.7750847 0.42278,1.3583573 0.82989,1.7537287 0.40712,0.3875425 0.87687,0.5284672 1.40925,0.4227738 0.44626,-0.1017788 0.97081,-0.6615638 1.56583,-1.6754371 0.59501,-1.0099588 1.44056,-2.5601328 2.53664,-4.6505126 -0.36797,0.9316674 -0.66548,1.9338001 -0.89252,3.006392 -0.21922,1.0647627 -0.35623,2.1216995 -0.40712,3.1629748 -0.0548,1.04519 -0.0117,2.00034761 0.12527,2.86546735 0.1331,0.86511973 0.3758,1.56582965 0.72028,2.09821105 0.34448,0.5323814 0.80249,0.8181458 1.37793,0.861206 0.57153,0.039146 1.27615,-0.2466187 2.11387,-0.861206 0.72028,-0.5323814 1.45622,-1.22134758 2.20782,-2.06689447 0.75943,-0.84554688 1.49537,-1.73807123 2.20782,-2.67756783 0.72028,-0.9394966 1.38184,-1.8359356 1.9886,-2.6932261 0.30443,-0.4285278 0.52666,-0.7131836 0.79075,-1.0706357 -0.074,0.7041677 -0.15255,1.4015694 -0.21531,2.1197412 -0.21921,2.4231182 -0.37971,4.83841446 -0.4854,7.2497889 0,0.4071152 0.16441,0.6654775 0.4854,0.7829146 0.31317,0.113523 0.64199,0.086121 0.98648,-0.078291 0.35231,-0.1683264 0.59893,-0.4540908 0.73594,-0.861206 0.35231,-0.9394971 0.78291,-2.00034789 1.28398,-3.17863315 0.50889,-1.19002895 1.05693,-2.37223235 1.64412,-3.55443215 0.58327,-1.190029 1.1822,-2.2704533 1.8007,-3.2412663 0.62633,-0.9708131 1.22918,-1.7302417 1.81636,-2.2861106 0.58327,-0.5519551 1.11957,-0.7868331 1.61281,-0.7046231 0.32099,0.06263 0.50108,0.3366539 0.53238,0.8142312 0.0313,0.481492 -0.0313,1.1078249 -0.1879,1.8789949 -0.14876,0.763341 -0.32883,1.6088905 -0.54804,2.5366433 -0.21139,0.9316674 -0.39146,1.8789959 -0.54804,2.849809 -0.15656,0.970813 -0.22706,1.88682496 -0.20356,2.74020099 0.0196,0.59501441 0.17616,1.09999541 0.46975,1.51885431 0.30142,0.4149443 0.72028,0.6341602 1.25266,0.6576482 0.53238,0.019573 1.15089,-0.2270457 1.86334,-0.7359397 0.72028,-0.5323814 1.45622,-1.22134758 2.20782,-2.06689447 0.75943,-0.84554688 1.49536,-1.73807123 2.20782,-2.67756783 0.72028,-0.9394966 1.38184,-1.8359356 1.9886,-2.6932261 0.61459,-0.8651198 1.14697,-1.5854026 1.59715,-2.1608442 0,-0.09395 -0.0783,-0.1409247 -0.23488,-0.1409247 -0.14875,0 -0.25056,0.039146 -0.31316,0.1096081 -0.28185,0.3366528 -0.65374,0.8220609 -1.11174,1.4562211 -0.46192,0.626331 -0.97082,1.327041 -1.53452,2.098211 -0.56369,0.763341 -1.16654,1.5305988 -1.8007,2.3017689 -0.62633,0.76334096 -1.24483,1.46405085 -1.84768,2.09821102 -0.60676,0.64590388 -1.18611,1.15088468 -1.73807,1.51885428 -0.64982,0.426688 -1.07259,0.4932358 -1.26832,0.2035578 -0.19961,-0.2935927 -0.23487,-0.962986 -0.10961,-2.00426133 0.0822,-0.73985353 0.21922,-1.55408637 0.40712,-2.44269347 0.19573,-0.8846926 0.36797,-1.7850461 0.51672,-2.6932261 0.14488,-0.90818 0.22308,-1.7537295 0.23488,-2.5366432 0.008,-0.790743 -0.11744,-1.4601362 -0.3758,-2.0042613 -0.25054,-0.5402107 -0.6968,-0.8925227 -1.33096,-1.0491047 -0.6185,-0.144839 -1.26833,0.07829 -1.95728,0.6733057 -0.68114,0.5871853 -1.37793,1.440564 -2.09822,2.5679598 -0.71244,1.1273959 -1.4249,2.4426949 -2.14518,3.9458894 -0.71245,1.5031945 -1.40533,3.11208709 -2.08255,4.8227538 0.12526,-1.04518999 0.2427,-2.13344334 0.36014,-3.2725829 0.11352,-1.1469687 0.22704,-2.2430513 0.34448,-3.2882412 0.12527,-1.0412753 0.23879,-1.949458 0.34448,-2.7245427 0.10178,-0.7829138 0.20361,-1.3348697 0.29751,-1.6597789 2.08647,-2.348742 3.71885,-4.470444 4.90104,-6.372924 1.19003,-1.898566 2.01992,-3.562264 2.48967,-4.994995 0.46975,-1.428819 0.66156,-2.622765 0.57936,-3.585749 -0.0744,-0.95907 -0.34057,-1.683267 -0.79857,-2.176502 -0.46192,-0.489321 -1.00996,-0.73594 -1.64412,-0.73594 z m -0.15659,0.485407 c 0.55196,-0.03915 1.02171,0.140925 1.40925,0.54804 0.38363,0.407115 0.61071,1.041277 0.67331,1.894653 0.0626,0.845548 -0.12527,1.937716 -0.5637,3.272583 -0.43843,1.338783 -1.20178,2.90853 -2.28611,4.713146 -1.08825,1.796787 -2.59145,3.836283 -4.50959,6.122392 0.16441,-1.554084 0.38363,-3.108172 0.65765,-4.666171 0.28185,-1.565827 0.60284,-3.053368 0.97081,-4.462613 0.36406,-1.409244 0.74377,-2.661911 1.14306,-3.75799 0.40711,-1.09608 0.82206,-1.972945 1.25266,-2.630593 0.42669,-0.665476 0.84555,-1.009957 1.25266,-1.033447 z m -106.425489,7.844804 c -1.04519,0 -1.918142,0.211388 -2.614935,0.626332 -0.688964,0.407115 -1.213518,0.939498 -1.565829,1.597145 -0.356226,0.649819 -0.555869,1.354443 -0.595015,2.11387 -0.04306,0.751597 0.0548,1.487539 0.297507,2.207819 0.250533,0.712452 0.618503,1.315297 1.111739,1.816362 0.489321,0.501065 1.099996,0.8298892 1.83202,0.986472 -1.734154,0.2740198 -3.143403,0.8259757 -4.227739,1.6597789 -1.08825,0.8377177 -1.863337,1.8163629 -2.333085,2.9437587 -0.469748,1.1273959 -0.669392,2.2861118 -0.595015,3.4761407 0.07046,1.18219989 0.391458,2.27045333 0.955156,3.2725829 0.563698,1.0021297 1.350528,1.792875 2.364402,2.3800603 1.009959,0.5950145 2.223478,0.8377185 3.632723,0.7359397 1.240919,-0.09395 2.286112,-0.4071161 3.13166,-0.9394974 0.85337,-0.5323814 1.52668,-1.2056893 2.01992,-2.0199196 0.48932,-0.80640119 0.79074,-1.67152337 0.90818,-2.59927641 0.12527,-0.92775289 0.0665,-1.83985019 -0.17224,-2.74020099 -0.23096,-0.8964363 -0.64199,-1.7067545 -1.23701,-2.4270352 -0.5868,-0.7180557 -1.34274,-1.2709403 -2.264577,-1.6578216 0.0062,-0.010026 0.01333,-0.019317 0.01957,-0.029359 1.320857,-0.2244952 2.294147,-0.4823226 2.902657,-0.7711708 0.62633,-0.3014218 0.98647,-0.5950153 1.08042,-0.8768643 0.094,-0.2896782 0.0235,-0.5519556 -0.20355,-0.7829149 -0.21922,-0.238789 -0.5089,-0.426689 -0.86121,-0.563699 -0.34448,-0.144838 -0.65765,-0.207469 -0.9395,-0.187899 -0.14875,0.02349 -0.20356,0.09395 -0.17224,0.219216 0.0313,0.117437 0.0979,0.195724 0.20356,0.234874 0.81423,0.125266 1.27615,0.293594 1.39359,0.5010661 0.12526,0.1996431 0.0156,0.4149449 -0.32883,0.6419899 -0.34448,0.2192159 -0.81032,0.4188595 -1.39359,0.5950151 -0.39895,0.1223464 -0.82419,0.2064611 -1.244832,0.2975075 0.715072,-1.2446821 1.273272,-2.4816056 1.667612,-3.7110156 0.40711,-1.252661 0.61067,-2.411377 0.61067,-3.47614 0,-1.072592 -0.26619,-1.929885 -0.79857,-2.56796 -0.53238,-0.63416 -1.393592,-0.955156 -2.583621,-0.955156 z m 0.483449,0.557827 c 0.59893,0.02936 1.07455,0.20943 1.42686,0.538253 0.46975,0.438432 0.74377,1.06085 0.82989,1.863337 0.0939,0.794657 0.0196,1.698926 -0.21921,2.708884 -0.23096,1.00213 -0.59111,2.035579 -1.08043,3.100342 -0.333938,0.7208901 -0.722328,1.4186642 -1.135223,2.1060404 -0.534681,0.077315 -1.019326,0.1083577 -1.432733,0.070462 -0.08612,-0.019573 -0.180071,0.031317 -0.28185,0.1565829 -0.105693,0.1252662 -0.156582,0.2622765 -0.156582,0.4071156 0,0.1370099 0.113522,0.2270453 0.344482,0.2661909 0.316385,0.016818 0.614524,0.055687 0.900352,0.1096081 -0.651929,0.9805627 -1.375175,1.8483559 -2.168674,2.5992764 -0.794657,0.7515972 -1.60889,1.3113822 -2.442693,1.6754371 -0.262276,0.1056934 -0.387543,0.2348746 -0.375799,0.3914573 0.01957,0.1487537 0.133096,0.234874 0.344482,0.266191 0.207473,0.031316 0.485408,-0.046975 0.82989,-0.2348744 0.959069,-0.5832708 1.886825,-1.3857598 2.787176,-2.4113769 0.577992,-0.65876 1.107465,-1.3839604 1.612804,-2.139314 0.530306,0.1612714 1.003698,0.3903638 1.409248,0.6987512 0.75942,0.5754416 1.31921,1.2996391 1.67544,2.1765025 0.36405,0.8768634 0.52455,1.7967899 0.4854,2.7558593 -0.0431,0.96298397 -0.28968,1.86333754 -0.73594,2.7088844 -0.45017,0.8455469 -1.09216,1.5345131 -1.925967,2.0668945 -0.825975,0.5323814 -1.859424,0.7985729 -3.100342,0.7985729 -1.213517,0 -2.192162,-0.2975082 -2.943759,-0.8925227 C 93.173484,2.6871325 92.64893,1.9198747 92.335765,0.97254901 92.022599,0.02130876 91.92082,-0.99256769 92.038257,-2.0808178 c 0.125266,-1.0843356 0.438433,-2.145187 0.939498,-3.1786332 0.501064,-1.0334461 1.178287,-1.9337998 2.035577,-2.7088844 0.86512,-0.7711701 1.898569,-1.2918093 3.100342,-1.5658291 -0.794657,-0.3836277 -1.401417,-0.9160105 -1.816362,-1.5971455 -0.418858,-0.688964 -0.665477,-1.42882 -0.735939,-2.223478 -0.07438,-0.802486 0,-1.569744 0.219216,-2.301768 0.227045,-0.739854 0.583272,-1.370101 1.064764,-1.894654 0.477577,-0.520637 1.072593,-0.833803 1.785045,-0.939497 0.227045,-0.02349 0.440389,-0.03132 0.640032,-0.02153 z m 69.7479,4.441083 c 0.0753,0.0063 0.14973,0.02544 0.22313,0.05872 0.38363,0.148754 0.5715,0.430603 0.5637,0.845548 -0.0117,0.418858 -0.14875,0.908181 -0.40711,1.471879 -0.25054,0.563698 -0.57936,1.174373 -0.98648,1.8320204 -0.40711,0.6498184 -0.83772,1.2918096 -1.28398,1.9259698 -0.31316,-0.2270451 -0.48932,-0.6028448 -0.53238,-1.127397 -0.0391,-0.5323814 0.0157,-1.1039102 0.17224,-1.7224122 0.15659,-0.614587 0.36797,-1.19003 0.64199,-1.722412 0.28185,-0.532381 0.58327,-0.947327 0.90818,-1.252663 0.24075,-0.226066 0.47483,-0.328152 0.70071,-0.309251 z M 56.5918,-12.587531 c 0.293696,0 -0.579357,0.04697 -0.861206,0.172241 -0.27402,0.125266 -0.46192,0.340568 -0.563698,0.64199 l -0.219217,1.017789 c -0.939497,-1.323124 -2.156931,-1.886825 -3.648381,-1.691096 -0.962984,0.125266 -1.800705,0.497152 -2.520985,1.111739 -0.712453,0.606757 -1.295724,1.3426993 -1.753729,2.207819 -0.46192,0.8572907 -0.782914,1.7537297 -0.970814,2.6932262 -0.195733,0.9394965 -0.250533,1.8281063 -0.156583,2.6619095 0.09395,0.8377178 0.352313,1.5188548 0.767256,2.0512362 0.414945,0.5323814 0.990388,0.82206035 1.722412,0.86120601 0.227046,0.0234874 0.508895,-3e-8 0.845548,-0.0626332 0.344483,-0.0626331 0.755514,-0.24270381 1.237005,-0.54804021 0.477578,-0.3014218 1.033448,-0.7985734 1.659779,-1.4875376 0.63416,-0.6967932 1.350529,-1.6636947 2.145186,-2.8967839 -0.219216,1.2330892 -0.399286,2.2665385 -0.532382,3.1003417 -0.13701,0.8377177 -0.266191,1.6362922 -0.391457,2.3957185 -0.117437,0.75159723 -0.266191,1.6167196 -0.454091,2.5992764 -1.651947,1.0843353 -3.022051,2.2900265 -4.11813,3.6170653 -1.09608,1.3231243 -1.957288,2.6697401 -2.583618,4.0398392 -0.634161,1.3779279 -1.064765,2.6971419 -1.28398,3.9615479 -0.227041,1.260491 -0.285764,2.395719 -0.172242,3.397849 0.105693,1.002129 0.344483,1.792875 0.720282,2.38006 0.367969,0.583271 0.83772,0.876865 1.409246,0.876865 1.260492,-0.02349 2.399634,-0.814233 3.413508,-2.380061 1.009959,-1.565827 1.9338,-3.78148 2.771517,-6.639115 0.833803,-2.8615508 1.569745,-6.2006874 2.207819,-10.0213067 0.876864,-0.51280849 1.898569,-1.23309138 3.069025,-2.16084422 1.178285,-0.92775288 2.387891,-1.97686038 3.632724,-3.14731658 0.840946,-0.7910149 1.617539,-1.6058347 2.364402,-2.4309497 -0.193571,0.8325361 -0.331258,1.6631488 -0.375799,2.4935829 -0.05089,1.0256171 0.0274,1.9846893 0.234874,2.88112559 0.199643,0.89643629 0.540213,1.63237745 1.017789,2.20781911 0.477578,0.571527 1.111739,0.9120957 1.894654,1.017789 0.708536,0.082206 1.385759,-0.070463 2.035577,-0.4540905 0.645904,-0.3757986 1.229175,-0.90818162 1.753729,-1.59714576 0.532382,-0.67722043 0.970814,-1.42490534 1.315297,-2.23913564 0.35231,-0.8220595 0.583271,-1.6206339 0.688964,-2.3957186 0.708537,0.23096 1.487539,0.2896783 2.333086,0.1722412 0.853376,-0.1135225 1.714584,-0.4384326 2.583618,-0.970814 0.86512,-0.5323814 1.667609,-1.3192121 2.411377,-2.364402 0,-0.09395 -0.09004,-0.1291811 -0.266191,-0.1096081 -0.18007,0.011744 -0.305339,0.058719 -0.375799,0.1409246 -0.595015,0.845547 -1.29181,1.4992819 -2.082553,1.9572865 -0.782913,0.4619191 -1.573659,0.7437689 -2.364402,0.8455477 -0.782913,0.09395 -1.518855,0.023487 -2.207819,-0.2192161 0.101779,-0.7829138 0.0039,-1.4327342 -0.297508,-1.9572864 -0.293592,-0.5323814 -0.64982,-0.880779 -1.064763,-1.0491055 -0.41886,-0.1644119 -0.763343,-0.093949 -1.033448,0.2192161 -0.281846,0.3249092 -0.356226,0.700709 -0.219216,1.1273969 0.14484,0.4306026 0.411032,0.8259753 0.798573,1.1900302 0.383628,0.3562257 0.798574,0.6106735 1.237005,0.7672563 -0.08612,0.7007079 -0.289678,1.4483927 -0.610673,2.2391356 -0.313166,0.7829139 -0.712453,1.51885495 -1.19003,2.20781908 C 70.061845,0.52237245 69.529462,1.05867 68.946192,1.457956 68.359007,1.8533274 67.756162,2.0099107 67.12983,1.9277048 66.660083,1.8650716 66.315599,1.4931865 66.096383,0.81596609 65.884996,0.1465748 65.783217,-0.70288923 65.783217,-1.7363354 c 0,-1.0412754 0.09395,-2.1451872 0.281849,-3.3038995 0.195729,-1.1587124 0.461921,-2.254795 0.798573,-3.2882412 0.332739,-1.0412753 0.712453,-1.8985689 1.143055,-2.5679599 0.438432,-0.665477 0.912097,-1.037359 1.424905,-1.111739 0.54021,-0.06263 0.947327,0.09395 1.221347,0.469749 0.281848,0.375799 0.442347,0.853378 0.485407,1.424905 0.03915,0.5754417 -0.0274,1.1508847 -0.203558,1.7224117 0.09395,0.031317 0.164416,0.043061 0.219216,0.031317 0.05089,-0.019573 0.117438,-0.031317 0.203558,-0.031317 0.301419,-1.1469686 0.289678,-2.1060417 -0.03132,-2.8811257 -0.324908,-0.782914 -0.947327,-1.174372 -1.863336,-1.174372 -0.806401,0 -1.534514,0.258363 -2.192161,0.767257 -0.649819,0.512808 -1.213518,1.19003 -1.691096,2.0355774 -0.411937,0.7167056 -0.73938,1.5072166 -0.998216,2.3663593 -0.847965,0.9677513 -1.779736,1.9413988 -2.822407,2.9261432 -1.127396,1.0647628 -2.262624,2.0590662 -3.397849,2.9750754 -1.127396,0.91992371 -2.153016,1.66369403 -3.069025,2.23913567 0.207472,-1.12739586 0.426688,-2.43095127 0.657648,-3.91457287 0.238789,-1.479707 0.501066,-2.9946497 0.782915,-4.5409045 0.281848,-1.5540838 0.555869,-2.9594186 0.829889,-4.2120806 0.03915,-0.258362 -0.03915,-0.454091 -0.234874,-0.579357 -0.1879,-0.125267 -1.037591,-0.203557 -0.73594,-0.203557 z m -4.468485,0.665477 c 0,-0.295931 0.599909,0.04012 0.914053,0.195729 0.414944,0.199643 0.786829,0.469749 1.111739,0.814231 0.332737,0.344482 0.551954,0.685051 0.657648,1.0177888 -0.125266,0.8572906 -0.219219,1.5462568 -0.281849,2.0668944 -0.06263,0.5245523 -0.117433,0.8064018 -0.156583,0.8455478 -0.919924,1.5462547 -1.749814,2.7402017 -2.489669,3.5857487 -0.732024,0.8377178 -1.370101,1.4092466 -1.910311,1.7224121 -0.544126,0.3053364 -0.978644,0.4227736 -1.299638,0.3601407 -0.32491,-0.062633 -0.563699,-0.3366538 -0.720282,-0.8298895 -0.156586,-0.4893211 -0.230956,-1.0999957 -0.219216,-1.8320201 0.0078,-0.7398535 0.10178,-1.5227696 0.281849,-2.3487437 0.176156,-0.8338032 0.438433,-1.6441213 0.782915,-2.4270352 0.344482,-0.7829138 0.767256,-1.456221 1.268322,-2.01992 0.501064,-0.563697 1.088251,-0.927754 1.769386,-1.09608 0.09591,-0.02838 0.291636,0.04384 0.291636,-0.0548 z m 103.747925,0.27402 c 0.36014,-0.01076 0.74181,0.06263 1.14501,0.219216 -0.39928,0.751597 -0.82206,1.5658302 -1.26832,2.4426937 -0.45018,0.8690343 -0.88861,1.7067545 -1.3153,2.5209849 -0.4306,0.8142303 -0.81423,1.5031965 -1.15871,2.0668945 -0.33665,0.5636979 -0.5911,0.9081809 -0.76726,1.0334472 -0.27402,-0.3131656 -0.42277,-0.8338048 -0.45409,-1.5658292 -0.0313,-0.7398534 0.0548,-1.5423425 0.26619,-2.4113768 0.20748,-0.8651198 0.52456,-1.6636942 0.95516,-2.3957186 0.42669,-0.7398537 0.95516,-1.2839807 1.58149,-1.6284627 0.31708,-0.176154 0.65569,-0.271084 1.01583,-0.281849 z m 30.36534,0 c 0.36014,-0.01076 0.74181,0.06263 1.14501,0.219216 -0.39928,0.751597 -0.82206,1.5658302 -1.26832,2.4426937 -0.45017,0.8690343 -0.88861,1.7067545 -1.31529,2.5209849 -0.43061,0.8142303 -0.81424,1.5031965 -1.15872,2.0668945 -0.33665,0.5636979 -0.5911,0.9081809 -0.76725,1.0334472 -0.27402,-0.3131656 -0.42277,-0.8338048 -0.45409,-1.5658292 -0.0313,-0.7398534 0.0548,-1.5423425 0.26619,-2.4113768 0.20747,-0.8651198 0.52455,-1.6636942 0.95515,-2.3957186 0.42669,-0.7398537 0.95516,-1.2839807 1.58149,-1.6284627 0.31708,-0.176154 0.65569,-0.271084 1.01583,-0.281849 z M 25.457245,-8.3128178 c 0.175727,-0.00532 0.348397,10e-8 0.518681,0.015658 0.688964,0.054804 1.225261,0.2270455 1.612804,0.5167236 0.289678,0.2427033 0.458005,0.544126 0.501065,0.9081809 0.03915,0.3562258 -0.180071,0.7359401 -0.657648,1.1430553 -0.481493,0.4071151 -1.315298,0.7907441 -2.505327,1.1430553 -1.190029,0.344482 -2.865469,0.6263318 -5.026311,0.8455477 0.426687,-1.1978581 0.990388,-2.1373574 1.691095,-2.8184925 0.708537,-0.6772204 1.444479,-1.1508847 2.207819,-1.4249045 0.578378,-0.2025791 1.130639,-0.31286 1.657822,-0.3288238 z m 107.527445,0.015658 c 0.68896,0.054804 1.22526,0.2270455 1.6128,0.5167236 0.28968,0.2427033 0.45801,0.544126 0.50107,0.9081809 0.0509,0.3562258 -0.16441,0.7359401 -0.64199,1.1430553 -0.48149,0.4071151 -1.32313,0.7907441 -2.52099,1.1430553 -1.19003,0.344482 -2.86547,0.6263318 -5.02631,0.8455477 0.42669,-1.1978581 0.99039,-2.1373574 1.6911,-2.8184925 0.70853,-0.6772204 1.44448,-1.1508847 2.20782,-1.4249045 0.77117,-0.2701055 1.49536,-0.3757987 2.1765,-0.3131658 z m -61.732815,0.806402 c -0.05828,0 0.118416,0.026423 0.183985,0.054804 0.270106,0.1174371 0.516724,0.3757994 0.73594,0.7829146 0.227043,0.4071151 0.313163,0.9199253 0.250533,1.5345125 -0.262277,-0.082206 -0.540211,-0.2505328 -0.82989,-0.5010653 -0.281848,-0.2583615 -0.508894,-0.5519551 -0.673306,-0.8768643 -0.15658,-0.3209947 -0.183985,-0.5871862 -0.07829,-0.7985729 0.09982,-0.1556043 0.585856,-0.1957286 0.41103,-0.1957286 z M 52.802494,2.9454937 c -0.344482,2.0668925 -0.73594,4.0907306 -1.174372,6.0754171 -0.438432,1.9925152 -0.908182,3.7932232 -1.409247,5.4021102 -0.501065,1.604974 -1.017789,2.916358 -1.55017,3.930231 -0.532382,1.009959 -1.076508,1.573658 -1.628463,1.691096 -0.469747,0.08221 -0.86512,-0.125267 -1.19003,-0.626332 -0.320995,-0.501064 -0.532382,-1.217433 -0.626332,-2.145186 -0.09395,-0.931667 -0.03132,-1.996433 0.1879,-3.194291 0.211387,-1.19003 0.602844,-2.442695 1.174372,-3.75799 0.571527,-1.3152955 1.366187,-2.6110214 2.38006,-3.8832563 1.009959,-1.2644057 2.290026,-2.4270362 3.836282,-3.491799 z"
       transform="matrix(0.99787388,0,0,0.99787388,-367.72511,86.207396)"
       inkscape:export-filename="name.svg"
       inkscape:export-xdpi="96"
       inkscape:export-ydpi="96"
       sodipodi:nodetypes="sccccccccccccccccccccccccccccccccccccccccccccsccccsccccccccccsscccccccccccccccsccccccccccccccccccccccccccccccccssscccccccccsccccccccccccsccccccccccccccccccccccccccsccccccccccccccccccccccccccccccccccccccccccccccccsccccccsccccccccccccccccccscccccccccccccccccccsccccccccscccccccccccccccccccccccccsscccccccccccscccccccscscccccccccccccccccccccscssssccccccsccccccccccccccscccscccccccsscccccccccsssccccccccscccccccccccccccccccccccccccccccccccccccccccccccsccccccccccscccsccccccssscccccccccccsscssscccccccccsscccccccccssccccccccscccccccccsccccccssccccccccscc" />
  </g>
</svg>
